<?xml version="1.0" encoding="UTF-8" standalone="no"?>
<!-- Uploaded to: SVG Repo, www.svgrepo.com, Generator: SVG Repo Mixer Tools -->

<svg
   fill="#000000"
   version="1.1"
   id="Capa_1"
   width="1000"
   height="1000.0001"
   viewBox="0 0 122.1875 122.18751"
   xml:space="preserve"
   sodipodi:docname="etsy-bw-icon.svg"
   inkscape:version="1.4 (e7c3feb1, 2024-10-09)"
   inkscape:export-filename="etsy-bw-icon.svg"
   inkscape:export-xdpi="96"
   inkscape:export-ydpi="96"
   xmlns:inkscape="http://www.inkscape.org/namespaces/inkscape"
   xmlns:sodipodi="http://sodipodi.sourceforge.net/DTD/sodipodi-0.dtd"
   xmlns="http://www.w3.org/2000/svg"
   xmlns:svg="http://www.w3.org/2000/svg"><defs
   id="defs1" /><sodipodi:namedview
   id="namedview1"
   pagecolor="#ffffff"
   bordercolor="#000000"
   borderopacity="0.25"
   inkscape:showpageshadow="2"
   inkscape:pageopacity="0.0"
   inkscape:pagecheckerboard="0"
   inkscape:deskcolor="#d1d1d1"
   inkscape:zoom="0.73"
   inkscape:rotation="1"
   inkscape:cx="477.76111"
   inkscape:cy="487.6266"
   inkscape:window-width="1976"
   inkscape:window-height="1225"
   inkscape:window-x="591"
   inkscape:window-y="25"
   inkscape:window-maximized="0"
   inkscape:current-layer="g1" />
<g
   id="g1"
   transform="rotate(-1.2750393,505.22384,-356.47372)">
	<path
   d="M 51.858271,0.59633781 C 23.444585,0.59633783 0.41089964,23.631077 0.41089962,52.043711 c -2e-8,28.412635 23.03368638,51.447369 51.44737238,51.447369 28.413685,0 51.447368,-23.034735 51.447378,-51.447369 C 103.30564,23.631077 80.271958,0.59633779 51.858271,0.59633781 Z M 83.283537,72.328977 c -0.585264,4.84 -1.192631,9.67579 -1.735789,14.521054 -0.200001,1.803157 -0.131579,1.792631 -1.980001,1.771579 -14.110527,-0.17579 -28.220002,-0.404212 -42.330529,-0.483158 -5.05579,-0.02948 -10.112632,0.30421 -15.170527,0.463157 -0.669475,0.02211 -1.337895,0.0043 -2.133685,0.0042 2.2e-5,-1.406316 -1.2e-5,-2.767368 2e-5,-4.346316 1.803158,-0.35579 3.714737,-0.709474 5.614737,-1.118947 0.781053,-0.168421 1.555789,-0.412632 2.29579,-0.709474 1.116842,-0.449474 1.817895,-1.28 1.978947,-2.505263 0.07474,-0.57579 0.188422,-1.153685 0.193685,-1.730527 0.09684,-10.528422 0.229473,-21.055792 0.24421,-31.583161 0.0095,-6.540001 -0.157895,-13.078948 -0.265263,-19.616844 -0.06,-3.702106 -1.04,-4.853684 -4.649473,-5.543158 -1.533685,-0.291579 -3.084211,-0.523158 -4.602106,-0.876843 -0.366316,-0.08736 -0.887369,-0.532632 -0.916842,-0.852632 -0.109474,-1.192631 -0.04315,-2.398947 -0.04316,-3.701052 20.240002,0.336842 40.365266,1.189473 60.680004,-0.564211 -0.425262,6.870527 -0.851579,13.753686 -1.285263,20.760002 -1.230526,6e-6 -2.356842,0.0979 -3.449473,-0.05158 C 75.342502,36.111063 74.85724,35.513171 74.723556,35.071066 74.104608,33.02054 73.646713,30.92054 73.02566,28.86896 72.66145,27.677381 72.170923,26.510013 71.608818,25.396329 70.338292,22.875275 68.430923,21.521591 65.410923,21.57317 c -7.258947,0.127369 -14.520001,0.03894 -21.778949,0.04316 -1.846316,0.0021 -1.901053,0.06316 -1.903158,1.871579 -0.01053,8.15579 -0.01682,16.312633 -0.02319,24.467371 -0.0021,0.445263 10e-6,0.890526 2.5e-5,1.450526 3.209474,-3e-5 6.244211,0.05053 9.276843,-0.01895 1.965263,-0.04316 3.927369,-0.236843 5.889474,-0.398947 2.683158,-0.222106 3.636843,-1.005263 4.311579,-3.594738 0.505264,-1.943158 0.957895,-3.9 1.39579,-5.86 0.172631,-0.772632 0.52421,-1.128422 1.371579,-1.068421 1.067369,0.07579 2.14421,0.01895 3.367369,0.01895 0,0.712631 0.0063,1.351578 -4e-5,1.993684 -0.06526,7.653684 -0.148421,15.30737 -0.172632,22.961054 -0.0042,1.017896 -0.24,1.423159 -1.332632,1.428421 -3.215789,0.02316 -3.213684,0.06632 -3.971579,-3.073684 -0.273684,-1.128421 -0.548421,-2.258947 -0.845263,-3.38 -0.681053,-2.58421 -2.609474,-3.53579 -5.034737,-3.61579 -4.563159,-0.153684 -9.132633,-0.197895 -13.700001,-0.285264 -0.124211,-0.0021 -0.249474,0.06631 -0.494737,0.13158 -0.0221,0.506316 -0.06631,1.030526 -0.06737,1.553684 -0.01051,6.812632 -0.01684,13.623159 -0.01896,20.434739 -0.0032,4.232632 1.591578,6.286316 5.837894,6.406317 6.530527,0.187368 13.076843,0.05158 19.609476,-0.148422 3.951578,-0.118947 6.657895,-2.433684 8.352632,-5.873685 1.381053,-2.806315 2.64421,-5.675789 3.811579,-8.574737 0.51579,-1.285263 1.18842,-1.881053 2.58,-1.667369 0.603158,0.09474 1.235789,0.01579 2.08421,0.01579 -0.238947,1.958948 -0.456842,3.748422 -0.672631,5.538949 z"
   id="path1"
   style="display:inline;stroke-width:1.05263" /><ellipse
   style="opacity:0.993651;fill:none;stroke:#000000;stroke-width:11.1459;stroke-linejoin:round;stroke-dasharray:none;stroke-opacity:1"
   id="path2"
   cx="53.036476"
   cy="49.939884"
   transform="rotate(1.2750393)"
   rx="55.520802"
   ry="55.520809" />
</g>
</svg>
