<svg xmlns="http://www.w3.org/2000/svg" width="753" height="320" xmlns:v="https://vecta.io/nano"><style><![CDATA[.B{fill:#231f20 icc-color(srgb-iec61966-2, 0.1, 0.13699341, 0.12199402, 0.125)}]]></style><defs><clipPath id="A"><path d="M0 208h278V0H0z" transform="translate(-65.714 -186.863)"/></clipPath><clipPath id="B"><path d="M0 208h278V0H0z" transform="translate(-174.626 -164.695)"/></clipPath><clipPath id="C"><path d="M0 208h278V0H0z" transform="translate(-91.423 -196.519)"/></clipPath><clipPath id="D"><path d="M0 208h278V0H0z" transform="translate(-14.486 -123.904)"/></clipPath><clipPath id="E"><path d="M0 208h278V0H0z" transform="translate(-131.166 -23.96)"/></clipPath><clipPath id="F"><path d="M0 208h278V0H0z" transform="translate(-61.138 -120.212)"/></clipPath><clipPath id="G"><path d="M0 208h278V0H0z" transform="translate(-105.032 -125.339)"/></clipPath><clipPath id="H"><path d="M0 208h278V0H0z" transform="translate(-116.881 -82.349)"/></clipPath><clipPath id="I"><path d="M0 208h278V0H0z" transform="translate(-91.62 -110.392)"/></clipPath><clipPath id="J"><path d="M0 208h278V0H0z" transform="translate(-110.63 -147.943)"/></clipPath><clipPath id="K"><path d="M0 208h278V0H0z" transform="translate(-53.835 -57.631)"/></clipPath><clipPath id="L"><path d="M0 208h278V0H0z" transform="translate(-53.53 -54.368)"/></clipPath><clipPath id="M"><path d="M0 208h278V0H0z" transform="translate(-49.595 -47.17)"/></clipPath><clipPath id="N"><path d="M0 208h278V0H0z" transform="translate(-67.216 -93.464)"/></clipPath><clipPath id="O"><path d="M0 208h278V0H0z" transform="translate(-57.611 -63.845)"/></clipPath><clipPath id="P"><path d="M0 208h278V0H0z" transform="translate(-87.235 -134.744)"/></clipPath><clipPath id="Q"><path d="M0 208h278V0H0z" transform="translate(-64.06 -69.27)"/></clipPath><clipPath id="R"><path d="M0 208h278V0H0z" transform="translate(-73.545 -116.241)"/></clipPath><clipPath id="S"><path d="M0 208h278V0H0z" transform="translate(-73.373 -115.489)"/></clipPath></defs><path d="M0 0c-6.136-11.772-17.385-59.05 5.068-62.635 4.828-.771 4.758 13.884 3.628 17.166C-1.014-17.264 2.038 3.91 0 0" transform="matrix(1.333333 0 0 -1.333333 87.6192 28.182933)" clip-path="url(#A)"/><path d="M0 0c-40.965 6.574-76.614-14.382-67.604-19.801 6.44-3.874 19.417-.247 22.727 2.161C-22.289-1.208 4.437-.712 0 0" transform="matrix(1.333333 0 0 -1.333333 232.83467 57.740267)" clip-path="url(#B)"/><path d="M0 0c-.201 5.147-13.384-44.939-3.703-55.168 1.915-2.024 8.776 6.425 8.767 13.158-.005 4.683-1.432 6.067-1.082 12.167.21 3.661.739 5.664.706 8.812C4.592-11.81.138-3.531 0 0" transform="matrix(1.333333 0 0 -1.333333 121.8972 15.308533)" clip-path="url(#C)"/><path d="M0 0c-4.005 4.777 9.984-49.921 36.834-60.277 3.4-1.311 5.125 13.897.172 20.369-3.445 4.502-5.294 6.947-10.196 12.5-3.237 3.667-7.835 7.487-10.987 9.627C6.461-11.424 2.747-3.276 0 0" transform="matrix(1.333333 0 0 -1.333333 19.315067 112.12827)" clip-path="url(#D)"/><path d="M0 0c-19.324 33.716-52.56 38.069-66.659 27.947-2.789-2.002 5.984-12.15 14.034-13.415 5.599-.88 8.978.737 16.629-1.634 5.107-1.582 9.067-3.704 12.461-5.434C-19.54 5.428 2.126-3.709 0 0" transform="matrix(1.333333 0 0 -1.333333 174.888 245.38613)" clip-path="url(#E)"/><path d="M0 0c4.599-6.375 5.223-13.782 1.395-16.544S-9.266-16.375-13.864-10-19.087 3.782-15.258 6.544-4.599 6.375 0 0" transform="matrix(1.333333 0 0 -1.333333 81.5176 117.0508)" clip-path="url(#F)"/><path d="M0 0c.716-3.039-2.789-6.466-7.83-7.654s-9.709.311-10.425 3.35 2.789 6.466 7.83 7.654S-.717 3.039 0 0" transform="matrix(1.333333 0 0 -1.333333 140.04227 110.2148)" clip-path="url(#G)"/><path d="M0 0c.975-4.862-5.445-10.25-14.341-12.034s-16.897.711-17.872 5.573 5.445 10.249 14.34 12.034S-.975 4.862 0 0" transform="matrix(1.333333 0 0 -1.333333 155.8412 167.53453)" clip-path="url(#H)"/><path d="M0 0c3.318-1.547 3.832-7.467 1.148-13.224s-7.549-9.17-10.867-7.624-3.831 7.468-1.148 13.225S-3.318 1.546 0 0" transform="matrix(1.333333 0 0 -1.333333 122.15947 130.14387)" clip-path="url(#I)"/><path d="M0 0c-5.081-2.083-9.888-4.77-14.325-7.942a67.4 67.4 0 0 1-6.314-5.164c-1.98-1.87-3.884-3.831-5.647-5.886-3.533-4.093-6.277-8.75-8.238-13.76-1.985-5.003-3.27-10.303-4.493-15.646l-3.731-16.147c-.685-2.692-1.403-5.381-2.198-8.051-.785-2.675-1.67-5.315-2.483-7.998-1.64-5.354-3.911-10.491-6.722-15.341-2.803-4.839-6.022-9.523-10.123-13.415l-.408.289 6.463 15.126 6.322 15.004c4.205 10.037 6.848 20.643 9.628 31.333 1.424 5.338 2.93 10.738 5.195 15.91 2.217 5.181 5.366 10.019 9.237 14.088 1.92 2.041 3.947 3.947 6.057 5.765 2.151 1.82 4.368 3.459 6.702 4.993C-10.42-3.799-5.395-1.358-.177.468z" transform="matrix(1.333333 0 0 -1.333333 147.5072 80.075467)" clip-path="url(#J)"/><path d="M0 0c-3.128-6.07-6.926-11.727-11.638-16.682-3.581-3.766-7.598-7.043-11.593-10.353-1.041-.861-.893-2.643 0-3.535 1.029-1.03 2.492-.864 3.535 0 4.083 3.382 8.185 6.732 11.827 10.599 4.89 5.193 8.923 11.114 12.186 17.448C5.789.332 1.476 2.864 0 0" transform="matrix(1.333333 0 0 -1.333333 71.779333 200.49213)" clip-path="url(#K)"/><path d="M0 0c.044.462.015 1.171-.124 1.907-.113.732-.3 1.494-.483 2.255l-1.372 4.592-3.375 9.12 5.198-8.299 2.361-4.368 1.041-2.353C3.568 2.039 3.86 1.155 4 0z" transform="matrix(1.333333 0 0 -1.333333 71.373733 204.84307)" clip-path="url(#L)"/><path d="M0 0c.068.648.166 1.29.513 1.874l.241.427.296.346c.203.213.414.475.63.603l.656.444c.217.124.425.204.639.304.434.213.83.297 1.24.424 1.607.41 3.089.466 4.555.478 2.92-.006 5.731-.336 8.521-.749C22.859 3.298 28.317 2.075 33.71.64c-5.52.781-11.075 1.34-16.599 1.519-2.754.078-5.521.061-8.164-.254-1.307-.16-2.62-.398-3.675-.819C5.03.971 4.746.879 4.573.744 4.479.681 4.364.627 4.288.565 4.229.5 4.168.441 4.104.388 3.924.143 3.998.131 4 .018z" transform="matrix(1.333333 0 0 -1.333333 66.126267 214.44013)" clip-path="url(#M)"/><path d="M0 0c-.039.261.035.481-.046.803-.085.315-.093.624-.233.962-.203.668-.503 1.344-.807 2.025-.66 1.351-1.436 2.684-2.259 3.995-1.675 2.608-3.517 5.146-5.481 7.589 2.33-2.103 4.561-4.322 6.678-6.686L.857 4.924 2.15 2.76c.219-.361.353-.832.527-1.253S2.907.507 3 0z" transform="matrix(1.333333 0 0 -1.333333 89.621067 152.71413)" clip-path="url(#N)"/><path d="M0 0c2.499 2.92 5.5 5.198 8.65 7.075 3.16 1.871 6.497 3.343 9.918 4.499 3.423 1.15 6.937 1.988 10.498 2.428 3.548.418 7.203.503 10.653-.385-3.515.558-7.064.131-10.485-.6-3.427-.756-6.758-1.892-9.941-3.307s-6.221-3.125-8.991-5.14C7.541 2.557 5.033.216 3.155-2.46z" transform="matrix(1.333333 0 0 -1.333333 76.8144 192.20707)" clip-path="url(#O)"/><path d="M0 0c.411.679.641 1.84.787 2.904l.247 3.351.015 3.403-.165 3.41.662-3.364.487-3.407.251-3.474c-.017-1.191.029-2.352-.515-3.756z" transform="matrix(1.333333 0 0 -1.333333 116.3132 97.675067)" clip-path="url(#P)"/><path d="M0 0c1.136.92 2.273 2.037 3.37 3.149l3.228 3.458 6.038 7.331c1.911 2.527 3.711 5.144 5.281 7.895.78 1.378 1.492 2.796 2.069 4.271.563 1.474 1.001 3.023.984 4.625.144-1.596-.175-3.209-.629-4.747-.467-1.54-1.076-3.035-1.757-4.492-1.371-2.91-2.985-5.7-4.716-8.408L8.334 5.176l-3.019-3.79-3.352-3.655z" transform="matrix(1.333333 0 0 -1.333333 85.4128 184.974)" clip-path="url(#Q)"/><path d="M0 0c.123.961-.109 2.213-.429 3.397A29.86 29.86 0 0 1-1.674 7c-.98 2.388-2.147 4.733-3.438 7.012 1.702-1.995 3.304-4.087 4.765-6.313a31.69 31.69 0 0 0 2.022-3.506C2.266 2.945 2.844 1.664 3 0z" transform="matrix(1.333333 0 0 -1.333333 98.059867 122.34507)" clip-path="url(#R)"/><path d="M0 0c1.259 1.671 2.887 2.561 4.479 3.355 1.612.77 3.269 1.358 4.939 1.87 3.344 1.007 6.752 1.713 10.184 2.157-3.37-.771-6.677-1.799-9.848-3.099-1.58-.656-3.128-1.384-4.562-2.248-1.413-.855-2.784-1.901-3.499-3.1z" transform="matrix(1.333333 0 0 -1.333333 97.830133 123.3476)" clip-path="url(#S)" class="B"/><text xml:space="preserve" transform="matrix(1.333333 0 0 1.333333 151.834 209.06907)"><tspan x="0 49.511" font-weight="900" font-size="109.055" font-family="Iowan Old Style" writing-mode="lr-tb" y="0" class="B">IG</tspan></text><text xml:space="preserve" x="354.039" y="193.378" transform="scale(1.0126916 .98746745)" font-size="133.333" font-family="Zeyada" fill="#666"><tspan x="354.039" y="193.378" font-weight="normal">Gallery</tspan></text></svg>