<svg xmlns="http://www.w3.org/2000/svg" width="753" height="320" xmlns:v="https://vecta.io/nano"><defs><clipPath id="A"><path d="M0 208h278V0H0z" transform="translate(-65.714 -186.863)"/></clipPath><clipPath id="B"><path d="M0 208h278V0H0z" transform="translate(-174.626 -164.695)"/></clipPath><clipPath id="C"><path d="M0 208h278V0H0z" transform="translate(-91.423 -196.519)"/></clipPath><clipPath id="D"><path d="M0 208h278V0H0z" transform="translate(-14.486 -123.904)"/></clipPath><clipPath id="E"><path d="M0 208h278V0H0z" transform="translate(-131.166 -23.96)"/></clipPath><clipPath id="F"><path d="M0 208h278V0H0z" transform="translate(-61.138 -120.212)"/></clipPath><clipPath id="G"><path d="M0 208h278V0H0z" transform="translate(-105.032 -125.339)"/></clipPath><clipPath id="H"><path d="M0 208h278V0H0z" transform="translate(-116.881 -82.349)"/></clipPath><clipPath id="I"><path d="M0 208h278V0H0z" transform="translate(-91.62 -110.392)"/></clipPath><clipPath id="J"><path d="M0 208h278V0H0z" transform="translate(-110.63 -147.943)"/></clipPath><clipPath id="K"><path d="M0 208h278V0H0z" transform="translate(-53.835 -57.631)"/></clipPath><clipPath id="L"><path d="M0 208h278V0H0z" transform="translate(-53.53 -54.368)"/></clipPath><clipPath id="M"><path d="M0 208h278V0H0z" transform="translate(-49.595 -47.17)"/></clipPath><clipPath id="N"><path d="M0 208h278V0H0z" transform="translate(-67.216 -93.464)"/></clipPath><clipPath id="O"><path d="M0 208h278V0H0z" transform="translate(-57.611 -63.845)"/></clipPath><clipPath id="P"><path d="M0 208h278V0H0z" transform="translate(-87.235 -134.744)"/></clipPath><clipPath id="Q"><path d="M0 208h278V0H0z" transform="translate(-64.06 -69.27)"/></clipPath><clipPath id="R"><path d="M0 208h278V0H0z" transform="translate(-73.545 -116.241)"/></clipPath><clipPath id="S"><path d="M0 208h278V0H0z" transform="translate(-73.373 -115.489)"/></clipPath></defs><path d="M0 0c-6.136-11.772-17.385-59.05 5.068-62.635 4.828-.771 4.758 13.884 3.628 17.166C-1.014-17.264 2.038 3.91 0 0" transform="matrix(1.333333 0 0 -1.333333 87.6192 28.182933)" clip-path="url(#A)"/><path d="M0 0c-40.965 6.574-76.614-14.382-67.604-19.801 6.44-3.874 19.417-.247 22.727 2.161C-22.289-1.208 4.437-.712 0 0" transform="matrix(1.333333 0 0 -1.333333 232.83467 57.740267)" clip-path="url(#B)"/><path d="M0 0c-.201 5.147-13.384-44.939-3.703-55.168 1.915-2.024 8.776 6.425 8.767 13.158-.005 4.683-1.432 6.067-1.082 12.167.21 3.661.739 5.664.706 8.812C4.592-11.81.138-3.531 0 0" transform="matrix(1.333333 0 0 -1.333333 121.8972 15.308533)" clip-path="url(#C)"/><path d="M0 0c-4.005 4.777 9.984-49.921 36.834-60.277 3.4-1.311 5.125 13.897.172 20.369-3.445 4.502-5.294 6.947-10.196 12.5-3.237 3.667-7.835 7.487-10.987 9.627C6.461-11.424 2.747-3.276 0 0" transform="matrix(1.333333 0 0 -1.333333 19.315067 112.12827)" clip-path="url(#D)"/><path d="M0 0c-19.324 33.716-52.56 38.069-66.659 27.947-2.789-2.002 5.984-12.15 14.034-13.415 5.599-.88 8.978.737 16.629-1.634 5.107-1.582 9.067-3.704 12.461-5.434C-19.54 5.428 2.126-3.709 0 0" transform="matrix(1.333333 0 0 -1.333333 174.888 245.38613)" clip-path="url(#E)"/><path d="M0 0c4.599-6.375 5.223-13.782 1.395-16.544S-9.266-16.375-13.864-10-19.087 3.782-15.258 6.544-4.599 6.375 0 0" transform="matrix(1.333333 0 0 -1.333333 81.5176 117.0508)" clip-path="url(#F)"/><path d="M0 0c.716-3.039-2.789-6.466-7.83-7.654s-9.709.311-10.425 3.35 2.789 6.466 7.83 7.654S-.717 3.039 0 0" transform="matrix(1.333333 0 0 -1.333333 140.04227 110.2148)" clip-path="url(#G)"/><path d="M0 0c.975-4.862-5.445-10.25-14.341-12.034s-16.897.711-17.872 5.573 5.445 10.249 14.34 12.034S-.975 4.862 0 0" transform="matrix(1.333333 0 0 -1.333333 155.8412 167.53453)" clip-path="url(#H)"/><path d="M0 0c3.318-1.547 3.832-7.467 1.148-13.224s-7.549-9.17-10.867-7.624-3.831 7.468-1.148 13.225S-3.318 1.546 0 0" transform="matrix(1.333333 0 0 -1.333333 122.15947 130.14387)" clip-path="url(#I)"/><path d="M0 0c-5.081-2.083-9.888-4.77-14.325-7.942a67.4 67.4 0 0 1-6.314-5.164c-1.98-1.87-3.884-3.831-5.647-5.886-3.533-4.093-6.277-8.75-8.238-13.76-1.985-5.003-3.27-10.303-4.493-15.646l-3.731-16.147c-.685-2.692-1.403-5.381-2.198-8.051-.785-2.675-1.67-5.315-2.483-7.998-1.64-5.354-3.911-10.491-6.722-15.341-2.803-4.839-6.022-9.523-10.123-13.415l-.408.289 6.463 15.126 6.322 15.004c4.205 10.037 6.848 20.643 9.628 31.333 1.424 5.338 2.93 10.738 5.195 15.91 2.217 5.181 5.366 10.019 9.237 14.088 1.92 2.041 3.947 3.947 6.057 5.765 2.151 1.82 4.368 3.459 6.702 4.993C-10.42-3.799-5.395-1.358-.177.468z" transform="matrix(1.333333 0 0 -1.333333 147.5072 80.075467)" clip-path="url(#J)"/><path d="M0 0c-3.128-6.07-6.926-11.727-11.638-16.682-3.581-3.766-7.598-7.043-11.593-10.353-1.041-.861-.893-2.643 0-3.535 1.029-1.03 2.492-.864 3.535 0 4.083 3.382 8.185 6.732 11.827 10.599 4.89 5.193 8.923 11.114 12.186 17.448C5.789.332 1.476 2.864 0 0" transform="matrix(1.333333 0 0 -1.333333 71.779333 200.49213)" clip-path="url(#K)"/><path d="M0 0c.044.462.015 1.171-.124 1.907-.113.732-.3 1.494-.483 2.255l-1.372 4.592-3.375 9.12 5.198-8.299 2.361-4.368 1.041-2.353C3.568 2.039 3.86 1.155 4 0z" transform="matrix(1.333333 0 0 -1.333333 71.373733 204.84307)" clip-path="url(#L)"/><path d="M0 0c.068.648.166 1.29.513 1.874l.241.427.296.346c.203.213.414.475.63.603l.656.444c.217.124.425.204.639.304.434.213.83.297 1.24.424 1.607.41 3.089.466 4.555.478 2.92-.006 5.731-.336 8.521-.749C22.859 3.298 28.317 2.075 33.71.64c-5.52.781-11.075 1.34-16.599 1.519-2.754.078-5.521.061-8.164-.254-1.307-.16-2.62-.398-3.675-.819C5.03.971 4.746.879 4.573.744 4.479.681 4.364.627 4.288.565 4.229.5 4.168.441 4.104.388 3.924.143 3.998.131 4 .018z" transform="matrix(1.333333 0 0 -1.333333 66.126267 214.44013)" clip-path="url(#M)"/><path d="M0 0c-.039.261.035.481-.046.803-.085.315-.093.624-.233.962-.203.668-.503 1.344-.807 2.025-.66 1.351-1.436 2.684-2.259 3.995-1.675 2.608-3.517 5.146-5.481 7.589 2.33-2.103 4.561-4.322 6.678-6.686L.857 4.924 2.15 2.76c.219-.361.353-.832.527-1.253S2.907.507 3 0z" transform="matrix(1.333333 0 0 -1.333333 89.621067 152.71413)" clip-path="url(#N)"/><path d="M0 0c2.499 2.92 5.5 5.198 8.65 7.075 3.16 1.871 6.497 3.343 9.918 4.499 3.423 1.15 6.937 1.988 10.498 2.428 3.548.418 7.203.503 10.653-.385-3.515.558-7.064.131-10.485-.6-3.427-.756-6.758-1.892-9.941-3.307s-6.221-3.125-8.991-5.14C7.541 2.557 5.033.216 3.155-2.46z" transform="matrix(1.333333 0 0 -1.333333 76.8144 192.20707)" clip-path="url(#O)"/><path d="M0 0c.411.679.641 1.84.787 2.904l.247 3.351.015 3.403-.165 3.41.662-3.364.487-3.407.251-3.474c-.017-1.191.029-2.352-.515-3.756z" transform="matrix(1.333333 0 0 -1.333333 116.3132 97.675067)" clip-path="url(#P)"/><path d="M0 0c1.136.92 2.273 2.037 3.37 3.149l3.228 3.458 6.038 7.331c1.911 2.527 3.711 5.144 5.281 7.895.78 1.378 1.492 2.796 2.069 4.271.563 1.474 1.001 3.023.984 4.625.144-1.596-.175-3.209-.629-4.747-.467-1.54-1.076-3.035-1.757-4.492-1.371-2.91-2.985-5.7-4.716-8.408L8.334 5.176l-3.019-3.79-3.352-3.655z" transform="matrix(1.333333 0 0 -1.333333 85.4128 184.974)" clip-path="url(#Q)"/><path d="M0 0c.123.961-.109 2.213-.429 3.397A29.86 29.86 0 0 1-1.674 7c-.98 2.388-2.147 4.733-3.438 7.012 1.702-1.995 3.304-4.087 4.765-6.313a31.69 31.69 0 0 0 2.022-3.506C2.266 2.945 2.844 1.664 3 0z" transform="matrix(1.333333 0 0 -1.333333 98.059867 122.34507)" clip-path="url(#R)"/><g fill="#231f20 icc-color(srgb-iec61966-2, 0.1, 0.13699341, 0.12199402, 0.125)"><path d="M0 0c1.259 1.671 2.887 2.561 4.479 3.355 1.612.77 3.269 1.358 4.939 1.87 3.344 1.007 6.752 1.713 10.184 2.157-3.37-.771-6.677-1.799-9.848-3.099-1.58-.656-3.128-1.384-4.562-2.248-1.413-.855-2.784-1.901-3.499-3.1z" transform="matrix(1.333333 0 0 -1.333333 97.830133 123.3476)" clip-path="url(#S)"/><path d="M156.52 107.753q9.585.568 16.685.852 7.171.284 12.638.284 4.047 0 10.508-.284 6.461-.284 16.969-.852v8.662h-1.846q-5.041 0-7.171 1.065-2.13 1.065-3.053 3.763-.852 2.414-1.207 9.656-.355 7.171-.355 23.075v8.591q0 3.905-.071 10.082-.071 6.106-.071 8.378 0 7.1.426 10.579.426 3.479 1.42 5.254.994 1.846 3.479 2.698 2.485.781 7.597.781h1.917v8.733q-8.733-.568-16.472-.852-7.739-.284-13.632-.284-4.402 0-11.289.284-6.816.213-17.679.852v-8.733h2.343q5.325 0 7.668-.71 2.343-.781 3.266-2.627 1.917-3.905 2.13-29.252 0-3.195 0-4.899v-8.591q0-3.479.071-9.159.071-5.68.071-7.881 0-7.881-.497-11.573-.426-3.763-1.491-5.68-1.065-1.917-3.337-2.698-2.201-.852-6.461-.852h-2.556zm170.1 2.556q0 7.597.639 14.981.639 7.384 1.988 14.555l-9.869 1.917q-2.059-10.366-9.514-15.975-7.455-5.68-19.028-5.68-17.182 0-26.057 9.585-8.804 9.514-8.804 28.045 0 18.105 8.52 28.684Q273.086 197 287.641 197q3.195 0 6.532-.639 3.408-.71 7.313-2.13v-11.218q0-10.508-2.13-13.348-2.13-2.911-8.236-2.911 0 0-1.633.071-1.562.071-3.124.071v-9.017q9.017.568 14.555.781 5.609.213 10.011.213 5.538 0 11.786-.142 6.319-.213 17.253-.71v8.875h-1.988q-5.538 0-7.455 2.414-1.846 2.414-1.846 11.289v3.621l.142 5.964q0 4.189.071 8.094.142 3.905.355 7.384-14.129 3.195-25.773 4.828-11.644 1.633-19.88 1.633-27.335 0-43.878-14.271-16.472-14.271-16.472-37.772 0-24.992 17.963-40.044 17.963-15.052 47.925-15.052 9.798 0 19.028 1.349 9.23 1.278 18.46 3.976z"/></g><g fill="#666"><path d="M420.243 167.554q-8.967 6.943-17.801 12.986-8.835 6.043-18.988 10.672-1.055-.257-1.978-.129-.923.129-1.846.386-.791.386-1.846.643-.923.257-1.846.257-2.637 0-5.143-1.029-2.373-1.029-4.22-2.7-1.846-1.8-2.901-4.114-1.055-2.314-1.055-4.886 0-7.715 3.297-14.915 3.428-7.329 8.307-13.886 5.011-6.686 10.944-12.6 5.934-6.043 10.944-11.058l-3.56-2.314 1.187-1.029q2.901.129 5.274-.514 2.373-.771 4.483-1.671 2.11-.9 4.22-1.671 2.242-.771 4.879-.771.791 0 1.582 0 .791 0 1.319.257.659.129.923.643.396.514.396 1.414 0 .386-2.11 1.929-2.11 1.414-5.67 3.857-3.428 2.314-7.912 5.529-4.483 3.214-9.23 7.2-4.615 3.986-9.098 8.615-4.351 4.5-7.912 9.515-3.56 4.886-5.67 10.286-2.11 5.4-2.11 10.929 0 2.186.923 3.6.923 1.286 2.242 2.186 1.45.9 3.165 1.286 1.846.257 3.56.257 5.802 0 12.131-2.957 6.329-2.957 12.263-7.2 5.934-4.243 11.076-9.129 5.274-4.886 8.967-8.872.791-.771.923-1.543.264-.771.264-1.8 0-.257-.132-.643 0-.386 0-.386-3.956.771-7.384 1.8-3.428.9-6.857 2.057-3.297 1.029-6.593 2.314-3.165 1.157-6.725 2.7-.132 0-.264 0 0 .129-.396.129-1.055 0-1.45-.771-.396-.771-.396-1.543 0-1.414 2.11-2.829 2.242-1.543 5.143-2.7 2.901-1.286 5.802-2.186 2.901-.9 4.351-1.286.396-.129 2.242-.643 1.978-.514 4.088-1.029 2.11-.643 3.956-1.029 1.846-.514 2.373-.643 1.055-.257 1.846-.771.791-.643 1.582-1.157.791-.643 1.582-1.029.791-.514 1.978-.514.659 0 1.187.129.659.129 1.055 1.029h20.702q.132 0 .659.129.527.129 1.055.386.659.129 1.055.386.396.129.659.129 0 .129.132.257 0 .129 0 .257 0 0 0 .129 0 .129 0 .257 0 0 0 .129-.132.129-.132.257-.132.257-.527.643-.396.386-.527.386-1.055 0-3.56.257-2.373.129-5.143.386-2.769.129-5.274.257-2.373.129-3.297.257-2.901.386-4.483 1.157-1.582.771-2.505 3.343-1.45 4.757-2.242 8.872-.791 3.986-1.187 7.843-.264 3.857-.264 7.972 0 4.114 0 9 0 .771 0 3.086 0 2.314 0 4.757.132 2.572.132 4.757.132 2.186.132 3.086.132.771.659 2.7.527 1.929 1.055 3.986.659 2.186 1.055 4.114.396 1.929.659 2.7.132.257.132 1.286.132 1.157.132 1.543-2.11 0-3.692-1.543-1.45-1.543-2.505-3.986-1.055-2.443-1.714-5.4-.527-2.957-.923-5.786-.264-2.829-.396-5.143-.132-2.314-.132-3.472-.132-1.543-.264-5.272 0-3.857 0-8.1 0-4.372 0-8.1.132-3.857.264-5.4zm56.7 7.714q-1.978 2.314-4.615 4.886-2.505 2.572-5.538 4.757-2.901 2.186-6.197 3.729-3.165 1.414-6.593 1.414-6.989 0-6.989-6.557 0-2.7 2.242-7.072 2.373-4.5 6.066-9.386 3.692-4.886 8.175-9.386 4.483-4.629 8.967-7.586 4.483-3.086 8.175-3.857 3.824-.771 6.197 2.186 0 3.472-.527 6.943-.527 3.472-1.055 6.943-.527 3.343-1.055 6.686-.527 3.343-.527 6.815 0 .771.132 2.443.264 1.543.659 3.214.527 1.543 1.319 2.829.791 1.157 2.11 1.157 3.165 0 5.143-.771 2.11-.771 3.56-1.8 1.582-1.157 2.637-2.572 1.187-1.414 2.373-2.829 1.319-1.414 2.901-2.7 1.582-1.286 4.088-2.057 0 0 0 .386 0 .386 0 .643 0 3.214-1.978 6.429-1.978 3.086-5.011 5.529-3.033 2.443-6.857 3.986-3.692 1.414-7.252 1.414-3.033 0-4.879-1.671-1.846-1.671-3.033-3.986-1.055-2.314-1.582-5.014-.527-2.829-1.055-5.143zm2.373-16.843q1.319-4.243.923-5.786-.264-1.543-1.846-1.157-1.582.257-4.088 2.186-2.505 1.8-5.406 4.5-2.901 2.572-5.802 5.786-2.901 3.214-5.406 6.172-2.505 2.829-4.088 5.143-1.582 2.314-1.978 3.343-.791 2.957-.264 4.5.659 1.543 1.846 2.186 1.319.514 2.769.129 1.582-.386 2.637-1.157 2.242-1.929 5.67-5.143 3.428-3.343 6.593-7.072 3.297-3.729 5.67-7.329 2.373-3.729 2.769-6.3z"/><path d="M503.843 181.44q0-.771 1.714-1.286 1.714-.514 3.824-1.286 2.242-.771 4.351-1.8 2.242-1.157 3.033-2.829-.264-6.172.132-11.7.396-5.529 1.319-10.929.923-5.4 2.242-10.8 1.45-5.529 3.165-11.572-.264-1.286.527-3.986.923-2.7 2.373-5.272 1.45-2.572 3.165-4.5 1.846-2.057 3.297-2.057 1.582 0 2.242 1.671.791 1.671 1.055 3.857.264 2.186.132 4.5-.132 2.186-.132 3.343 0 6.557-.791 12.729-.791 6.043-2.505 11.829-1.582 5.786-3.956 11.443-2.373 5.657-5.406 11.443 0 0-.132.386 0 .386 0 .643.132 4.629 2.769 6.557 2.637 1.8 6.197 2.057 3.692.129 7.516-.9 3.956-1.029 6.461-2.057l1.187 1.029q-.659 1.157-1.978 2.443-1.187 1.157-2.637 2.186-1.45.9-2.901 1.543-1.319.514-2.11.514-3.428 0-5.934-.257-2.505-.257-4.615-1.029-2.11-.771-4.088-2.314-1.978-1.543-4.351-4.114h-1.055q-1.187 1.029-2.242 1.671-.923.514-2.242.771-1.319.257-3.033.386-1.582 0-3.692 0-1.45 0-2.11-.386-.791-.514-.791-1.929zm27.823-56.574q-2.637 3.472-4.483 7.843-1.714 4.372-2.769 9-1.055 4.629-1.582 9.386-.527 4.757-.527 9.129 0 .257 0 1.157.132.9.132 1.929 0 .9 0 1.8.132.9.132 1.157.132-.129.527-.514.396-.386.527-.514v-1.286q1.978-4.243 3.428-8.229 1.582-3.986 2.637-7.972 1.055-4.114 1.582-8.357.527-4.243.527-9.129 0-.257 0-1.029 0-.9 0-1.671 0-.9-.132-1.671 0-.771 0-1.029z"/><path d="M541.291 181.44q0-.771 1.714-1.286 1.714-.514 3.824-1.286 2.242-.771 4.351-1.8 2.242-1.157 3.033-2.829-.264-6.172.132-11.7.396-5.529 1.319-10.929.923-5.4 2.242-10.8 1.45-5.529 3.165-11.572-.264-1.286.527-3.986.923-2.7 2.373-5.272 1.45-2.572 3.165-4.5 1.846-2.057 3.297-2.057 1.582 0 2.242 1.671.791 1.671 1.055 3.857.264 2.186.132 4.5-.132 2.186-.132 3.343 0 6.557-.791 12.729-.791 6.043-2.505 11.829-1.582 5.786-3.956 11.443-2.373 5.657-5.406 11.443 0 0-.132.386 0 .386 0 .643.132 4.629 2.769 6.557 2.637 1.8 6.197 2.057 3.692.129 7.516-.9 3.956-1.029 6.461-2.057l1.187 1.029q-.659 1.157-1.978 2.443-1.187 1.157-2.637 2.186-1.45.9-2.901 1.543-1.319.514-2.11.514-3.428 0-5.934-.257-2.505-.257-4.615-1.029-2.11-.771-4.088-2.314-1.978-1.543-4.351-4.114H555.4q-1.187 1.029-2.242 1.671-.923.514-2.242.771-1.319.257-3.033.386-1.582 0-3.692 0-1.45 0-2.11-.386-.791-.514-.791-1.929zm27.823-56.574q-2.637 3.472-4.483 7.843-1.714 4.372-2.769 9-1.055 4.629-1.582 9.386-.527 4.757-.527 9.129 0 .257 0 1.157.132.9.132 1.929 0 .9 0 1.8.132.9.132 1.157.132-.129.527-.514.396-.386.527-.514v-1.286q1.978-4.243 3.428-8.229 1.582-3.986 2.637-7.972 1.055-4.114 1.582-8.357.527-4.243.527-9.129 0-.257 0-1.029 0-.9 0-1.671 0-.9-.132-1.671 0-.771 0-1.029zm14.372 50.016q-.923.514-1.45.257-.527-.257-.791-.771-.132-.514-.264-1.157 0-.771 0-1.029 0-2.572.659-3.086.659-.643 1.714-.771 1.055-.257 2.242-.643 1.187-.386 2.242-2.443 1.582-3.214 2.769-6.686 1.319-3.6 3.165-6.686 1.846-3.086 4.615-5.014 2.901-1.929 7.912-1.929.791 0 1.714.129 1.055.129 1.846.514.923.257 1.45 1.029.659.643.659 1.8 0 2.7-1.45 4.886-1.319 2.057-3.428 3.857-1.978 1.671-4.351 3.214-2.373 1.543-4.351 2.957-1.978 1.414-3.428 2.957-1.319 1.543-1.319 3.343v12.343q0 1.414 1.055 2.314 1.187.771 2.637 1.286 1.45.514 3.033.771 1.582.257 2.373.257 3.165 0 6.329-1.029 3.165-1.157 6.066-2.829 3.033-1.671 5.67-3.6 2.637-2.057 5.011-3.857.791-.643 1.319-1.286.659-.771 1.187-1.414.659-.643 1.319-1.029.791-.514 1.978-.771 0 .129 0 .514 0 .386 0 .643 0 1.029-.264 1.8-.132.771-.923 1.543-2.901 3.214-6.197 6.043-3.297 2.829-6.989 5.014-3.692 2.186-7.78 3.472-4.088 1.286-8.703 1.286-4.615 0-7.12-1.286-2.505-1.286-3.956-3.729-1.319-2.443-1.846-5.786-.527-3.343-1.187-7.2zm17.01-19.929q0-.257-.527.129-.396.257-1.055.771-.527.514-.791 1.029-.264.386 0 .386.659.129 1.582-.771.923-.9.791-1.543zm32.57 31.63q1.319-5.143 1.846-9.257.659-4.243.791-8.229.264-3.986.132-8.357 0-4.372 0-9.9-2.11 0-3.165.257-.923.257-1.319.643-.396.257-.527.643-.132.386-.527.771-.264.257-1.187.514-.923.257-2.901.257-1.187 0-1.714-.9-.527-.9-.527-2.057 0-1.029 1.45-2.186 1.319-1.157 3.165-2.314 1.978-1.157 3.956-1.929 2.11-.771 3.56-.771.527 0 1.45.514 1.055.386 1.978 1.157.923.643 1.45 1.414.659.771.659 1.543v17.872q1.319-1.929 4.22-5.272 2.901-3.343 6.461-6.557 3.56-3.343 7.252-5.786 3.692-2.443 6.593-2.443 3.956 0 5.538 2.572 1.582 2.443 1.582 6.172-1.582 0-2.505-.514-.923-.514-1.714-1.157-.659-.643-1.45-1.029-.791-.514-2.11-.514-4.22.771-7.912 4.114-3.692 3.343-6.857 7.843-3.033 4.5-5.538 9.515-2.373 5.014-4.22 9.129-1.846 4.114-3.033 6.686-1.055 2.572-1.319 2.057-1.319 0-2.505-1.157-1.055-1.286-1.055-2.957z"/><path d="M668.8 249.328q-.791-4.886-1.319-10.286-.527-5.4-.923-12.472 0-1.157.132-3.857 0-2.572.264-5.915.264-3.214.791-6.815.527-3.472 1.319-6.686.659-3.086 1.714-5.529 1.055-2.314 2.637-3.343v1.029q0 3.857-.527 7.586-.659 3.729-1.187 7.457-.659 3.857-1.187 7.715-.659 3.857-.659 7.715 0 1.543.264 4.372.132 2.957.527 6.429.396 3.472 1.187 7.072.791 3.729 2.11 6.686 1.319 2.957 3.165 4.757 1.846 1.929 4.351 1.929 3.428 0 6.857-2.186 3.56-2.186 6.725-5.786 3.297-3.472 6.066-7.972 2.769-4.372 5.143-8.872 2.373-4.5 3.956-8.615 1.582-3.986 2.373-6.943.791-4.243 1.582-9 .791-4.629 1.45-9.643.791-4.886 1.187-9.772.527-4.886.527-9.772 0-.129 0-.771 0-.643-.132-1.286 0-.771 0-1.414 0-.643 0-.9-1.846 1.929-3.956 4.372-1.978 2.314-4.351 4.372-2.373 2.057-5.143 3.472-2.637 1.414-5.802 1.414-2.505 0-4.351-1.543-1.714-1.543-2.901-3.729-1.055-2.314-1.714-4.886-.527-2.572-.527-4.629-.132-1.157-.264-4.114-.132-3.086-.396-6.429-.132-3.472-.396-6.429-.132-3.086-.132-4.372l-1.187-1.157q-.923.514-2.373 1.543-1.45 1.029-3.165 1.929-1.582.9-3.165 1.671-1.582.643-2.769.643-1.582 0-2.505-1.029-1.055-1.157-1.055-2.443 0-.643 1.319-1.8 1.187-1.157 3.165-2.314 1.846-1.286 4.22-2.572 2.505-1.286 4.747-2.314 2.242-1.029 4.088-1.671 1.846-.771 2.637-.771.527 0 1.714.129 1.187.129 1.187 1.157v30.344q0 .771.264 2.314.264 1.414.791 2.957.527 1.543 1.45 2.7.923 1.029 2.11 1.029.659 0 1.714-.386 1.055-.386 1.978-.9 1.055-.514 1.846-1.029.791-.643 1.319-1.157 4.483-3.857 8.175-8.615 3.824-4.757 5.67-10.415.132-.386.396-1.671.396-1.414.659-2.957.396-1.671.791-3.086.396-1.543.396-2.314.132-.9.132-2.057.132-1.157.396-2.186.264-1.157.923-1.929.659-.771 2.11-.771 1.978 0 2.11 1.157.264 1.157.264 2.7 0 1.671-.264 3.343-.264 1.671-.659 3.343-.264 1.543-.396 3.214-.132 1.543.132 3.214-1.45 24.172-6.197 43.202-4.615 19.029-11.076 32.015-6.329 13.115-13.45 19.801-6.989 6.686-13.186 6.043-2.242 0-4.483-1.029-2.11-.9-3.956-2.572-1.846-1.671-3.165-3.729-1.45-1.929-2.11-3.986z"/></g></svg>