<?xml version="1.0" encoding="UTF-8" standalone="no"?>
<!-- Generator: Adobe Illustrator 19.0.0, SVG Export Plug-In . SVG Version: 6.00 Build 0)  -->

<svg
   version="1.1"
   id="Layer_1"
   x="0px"
   y="0px"
   viewBox="0 0 600 600"
   style="enable-background:new 0 0 600 600;"
   xml:space="preserve"
   sodipodi:docname="message-bw-icon.svg"
   inkscape:export-filename="message-bw-icon.svg"
   inkscape:export-xdpi="96"
   inkscape:export-ydpi="96"
   inkscape:version="1.4 (e7c3feb1, 2024-10-09)"
   xmlns:inkscape="http://www.inkscape.org/namespaces/inkscape"
   xmlns:sodipodi="http://sodipodi.sourceforge.net/DTD/sodipodi-0.dtd"
   xmlns="http://www.w3.org/2000/svg"
   xmlns:svg="http://www.w3.org/2000/svg"><defs
   id="defs1" /><sodipodi:namedview
   id="namedview1"
   pagecolor="#ffffff"
   bordercolor="#000000"
   borderopacity="0.25"
   inkscape:showpageshadow="2"
   inkscape:pageopacity="0.0"
   inkscape:pagecheckerboard="0"
   inkscape:deskcolor="#d1d1d1"
   inkscape:zoom="1.5866667"
   inkscape:cx="299.68487"
   inkscape:cy="299.68487"
   inkscape:window-width="2144"
   inkscape:window-height="1186"
   inkscape:window-x="2560"
   inkscape:window-y="121"
   inkscape:window-maximized="0"
   inkscape:current-layer="g1" />
<style
   type="text/css"
   id="style1">
	.st0{fill:#FFFFFF;}
</style>
<g
   id="g1">
	<circle
   cx="300"
   cy="300"
   r="297.5"
   id="circle1" />
	<path
   class="st0"
   d="m 300,123.5 c -47.9,0 -54,0.2 -72.8,1.1 -18.8,0.9 -31.6,3.8 -42.8,8.2 -11.6,4.5 -21.5,10.5 -31.3,20.4 -9.8,9.8 -15.8,19.7 -20.4,31.3 -4.4,11.2 -7.4,24.1 -8.2,42.8 -0.8,18.8 -1.1,24.8 -1.1,72.8 0,47.9 0.2,53.9 1.1,72.8 0.9,18.8 3.8,31.6 8.2,42.8 4.5,11.6 10.5,21.5 20.4,31.3 9.8,9.8 19.7,15.9 31.3,20.4 11.2,4.4 24.1,7.3 42.8,8.2 18.8,0.9 24.8,1.1 72.8,1.1 47.9,0 53.9,-0.2 72.8,-1.1 18.8,-0.9 31.6,-3.8 42.9,-8.2 11.6,-4.5 21.4,-10.6 31.2,-20.4 9.8,-9.8 15.8,-19.7 20.4,-31.3 4.3,-11.2 7.3,-24 8.2,-42.8 0.8,-18.8 1.1,-24.8 1.1,-72.8 0,-47.9 -0.2,-53.9 -1.1,-72.8 -0.9,-18.8 -3.9,-31.6 -8.2,-42.8 -4.5,-11.6 -10.6,-21.5 -20.4,-31.3 -9.8,-9.8 -19.6,-15.8 -31.3,-20.4 -11.3,-4.4 -24.1,-7.3 -42.9,-8.2 -18.8,-0.9 -24.8,-1.1 -72.7,-1.1 z m -15.8,31.8 c 4.7,0 9.9,0 15.8,0 47.1,0 52.7,0.2 71.3,1 17.2,0.8 26.5,3.7 32.8,6.1 8.2,3.2 14.1,7 20.3,13.2 6.2,6.2 10,12.1 13.2,20.3 2.4,6.2 5.3,15.6 6.1,32.8 0.8,18.6 1,24.2 1,71.3 0,47.1 -0.2,52.7 -1,71.3 -0.8,17.2 -3.7,26.5 -6.1,32.8 -3.2,8.2 -7,14.1 -13.2,20.3 -6.2,6.2 -12,10 -20.3,13.2 -6.2,2.4 -15.6,5.3 -32.8,6.1 -18.6,0.8 -24.2,1 -71.3,1 -47.1,0 -52.7,-0.2 -71.3,-1 -17.2,-0.8 -26.5,-3.7 -32.8,-6.1 -8.2,-3.2 -14.1,-7 -20.3,-13.2 -6.2,-6.2 -10,-12.1 -13.2,-20.3 -2.4,-6.2 -5.3,-15.6 -6.1,-32.8 -0.8,-18.6 -1,-24.2 -1,-71.3 0,-47.1 0.2,-52.7 1,-71.3 0.8,-17.2 3.7,-26.5 6.1,-32.8 3.2,-8.2 7,-14.1 13.2,-20.3 6.2,-6.2 12.1,-10 20.3,-13.2 6.2,-2.4 15.6,-5.3 32.8,-6.1 16.3,-0.8 22.6,-1 55.5,-1 z m 110,29.3 c -11.7,0 -21.2,9.5 -21.2,21.2 0,11.7 9.5,21.2 21.2,21.2 11.7,0 21.2,-9.5 21.2,-21.2 0,-11.7 -9.5,-21.2 -21.2,-21.2 z M 300,209.4 c -50.1,0 -90.6,40.6 -90.6,90.6 0,50.1 40.6,90.6 90.6,90.6 50.1,0 90.6,-40.6 90.6,-90.6 0,-50.1 -40.5,-90.6 -90.6,-90.6 z m 0,31.8 c 32.5,0 58.8,26.3 58.8,58.8 0,32.5 -26.3,58.8 -58.8,58.8 -32.5,0 -58.8,-26.3 -58.8,-58.8 0,-32.5 26.3,-58.8 58.8,-58.8 z"
   id="path1"
   sodipodi:insensitive="true"
   style="display:none" /><g
   id="g2"
   transform="translate(-42.226891,-1.8907563)"
   style="enable-background:new 0 0 600 600"><rect
     style="opacity:0.993651;fill:none;fill-opacity:1;stroke:#ffffff;stroke-width:30;stroke-linejoin:round;stroke-dasharray:none;stroke-opacity:1"
     id="rect1"
     width="361.13446"
     height="267.85715"
     x="160.71429"
     y="168.90756" /><path
     style="opacity:0.993651;fill:none;fill-opacity:1;stroke:#ffffff;stroke-width:25;stroke-linejoin:round;stroke-dasharray:none;stroke-opacity:1"
     d="M 165.12606,170.16806 342.22688,325.84034 519.95798,170.16807"
     id="path2"
     sodipodi:nodetypes="ccc" /></g>
</g>
</svg>
