<?xml version="1.0" encoding="utf-8"?>
<!-- Generator: Adobe Illustrator 25.4.1, SVG Export Plug-In . SVG Version: 6.00 Build 0)  -->
<svg version="1.1" id="Layer_1" xmlns="http://www.w3.org/2000/svg" xmlns:xlink="http://www.w3.org/1999/xlink" x="0px" y="0px"
	 viewBox="0 0 110.4 81.81" style="enable-background:new 0 0 110.4 81.81;" xml:space="preserve">
<style type="text/css">
	.st0{fill:#FEFEFE;}
	.st1{fill:#0066CC;}
	.st2{fill:#F7E71E;}
	.st3{fill:#FAF1DB;}
	.st4{fill:#FAE1B3;}
	.st5{fill:#4192CB;}
	.st6{fill:#0377C0;}
	.st7{fill:#FAA81B;}
	.st8{fill:#B3D6EB;}
</style>
<g>
	<path class="st0" d="M95.95,28.45c-1.48,1.64-2.96,3.29-4.44,4.93c-0.04,0.2-0.08,0.41-0.11,0.61c0.15-0.14,0.3-0.27,0.44-0.41
		l0.1-0.1c0.57-0.58,1.07-1.29,1.74-1.7c0.87-0.55,1.55-1.29,2.21-2.04C95.86,29.3,95.88,28.87,95.95,28.45z"/>
	<path class="st0" d="M16.59,49.58c0.55,0.34,1.09,0.7,1.67,0.98c1.06,0.5,2.14,0.93,3.24,1.32c-1.26-0.76-2.52-1.52-3.78-2.28
		c0.01-0.03,0.02-0.07,0.03-0.1c0.15,0.04,0.29,0.07,0.44,0.12c0.96,0.31,1.91,0.64,2.88,0.94c0.08,0.03,0.19-0.05,0.28-0.08
		c-0.57-0.29-1.16-0.56-1.72-0.87c-0.23-0.13-0.42-0.33-0.63-0.49c0.03-0.05,0.06-0.1,0.09-0.15c1.52,0.68,3.04,1.35,4.68,2.08
		c-0.11-0.28-0.16-0.41-0.25-0.63c0.22,0.07,0.39,0.12,0.56,0.17c0.82,0.17,1.63,0.34,2.41,0.51c-2.89-1.34-5.81-2.7-8.72-4.05
		C17.6,47.98,17.21,48.88,16.59,49.58z"/>
	<path class="st0" d="M17.81,46.71c1.65,0.68,3.3,1.37,4.95,2.05c0.03-0.08,0.07-0.15,0.1-0.23c-1.26-0.65-2.52-1.3-3.78-1.94
		l0.06-0.15c0.78,0.33,1.57,0.66,2.35,0.99c0.03-0.03,0.05-0.07,0.08-0.1c-0.63-0.4-1.26-0.8-1.88-1.2c-0.61-0.4-1.21-0.8-1.82-1.21
		c0.03-0.08,0.07-0.16,0.1-0.24c0.25,0.08,0.51,0.13,0.75,0.23c1.58,0.67,3.15,1.36,4.73,2.04c0.03-0.04,0.05-0.07,0.08-0.11
		c-0.91-0.37-1.64-1.04-2.45-1.58c-1.41-0.93-2.88-1.75-4.34-2.6C17.62,43.77,17.97,45.28,17.81,46.71z"/>
	<path class="st0" d="M19.93,59.08c0.03,0.03,0.06,0.06,0.1,0.09c0,0,0.02-0.02,0.04-0.03c-0.04-0.02-0.07-0.05-0.11-0.07
		c-0.09-0.03-0.17-0.07-0.26-0.1c-0.01,0.03-0.02,0.06-0.02,0.08C19.76,59.05,19.85,59.07,19.93,59.08z"/>
	<path class="st1" d="M73.45,26.13"/>
	<path class="st1" d="M64.25,30.19c-3.74,1.69-6.58,2.92-12.12,3.67c0,0-11.75,2.42-29.19-1.45c-0.3-0.07,3.27,1.92-1.1-0.24
		c-0.43-0.21-0.83-0.32-1.08-0.46c-0.03,0.07-0.06,0.14-0.08,0.21c1.56,0.92,3.12,1.84,4.69,2.76c-2.59-0.7-4.99-1.93-7.44-3.01
		l-0.06,0.14c1.25,0.8,2.51,1.59,3.76,2.39c-0.03,0.06-0.05,0.13-0.08,0.19c-0.39-0.14-0.78-0.3-1.18-0.43
		c-0.49-0.17-0.97-0.34-1.47-0.47c-0.29-0.07-0.6-0.03-0.89-0.1c-0.7-0.17-1.4-0.38-2.1-0.57c0.14,0.23,0.31,0.39,0.5,0.49
		c0.77,0.4,1.55,0.77,2.32,1.17c0.2,0.1,0.37,0.25,0.56,0.38c-0.02,0.03-0.04,0.07-0.06,0.1c-0.2-0.04-0.4-0.07-0.6-0.11l-0.01,0.01
		c1.01,0.72,2.02,1.44,3.03,2.16c-0.04,0.08-0.08,0.15-0.13,0.23c-2.87-1.61-5.85-2.98-8.6-4.85c0,0,0,0,0,0
		c4.55,3.28,9.43,5.93,14.58,8.03c-0.14,0.02-0.28,0.02-0.4-0.02c-2.64-0.97-5.33-1.81-7.9-2.96c-1.86-0.83-3.57-2.05-5.35-3.08
		c-0.28-0.16-0.62-0.2-0.93-0.29l-0.08,0.23c2.48,1.41,4.95,2.83,7.43,4.24l-0.11,0.25c-1.3-0.51-2.6-1.02-3.9-1.53
		c0.67,0.86,1.86,0.98,2.46,1.93c-1.31-0.71-2.56-1.49-3.83-2.24c-0.18-0.11-0.43-0.09-0.64-0.13c-0.01,0.05-0.01,0.1-0.02,0.16
		c0.13,0.11,0.25,0.21,0.46,0.39c-0.33-0.05-0.56-0.09-0.78-0.13c-0.01,0.03-0.01,0.06-0.02,0.09c1.52,0.94,3.05,1.88,4.57,2.82
		c0.05,0.04,0.1,0.08,0.15,0.12c-0.01,0.02-0.02,0.04-0.03,0.07c-0.07-0.03-0.15-0.05-0.22-0.08c-0.14-0.06-0.29-0.11-0.42-0.19
		c-1.81-1.1-3.61-2.21-5.42-3.31c-0.18-0.11-0.38-0.19-0.58-0.29c3.23,2.49,6.69,4.56,10.23,6.5c0.6,0.23,1.2,0.46,1.8,0.69
		c-0.02,0.07-0.05,0.13-0.07,0.2c-0.63-0.25-1.26-0.5-1.89-0.75c-1.03-0.32-2.14-0.48-3.09-0.98c-2.14-1.12-4.2-2.41-6.3-3.62
		c-0.26-0.15-0.53-0.27-0.8-0.4c-0.02,0.05-0.05,0.1-0.07,0.15c1.02,0.68,2.03,1.41,3.08,2.04c2,1.2,4.02,2.35,6.03,3.53
		c0.08,0.04,0.16,0.08,0.24,0.12c-0.01,0.03-0.02,0.05-0.03,0.08l-0.3-0.1c-1.25-0.5-2.5-1.01-3.76-1.51
		c0.12,0.12,0.23,0.25,0.34,0.38c1.46,0.84,2.93,1.67,4.34,2.6c0.81,0.53,1.54,1.21,2.45,1.58c0.07,0.02,0.13,0.05,0.2,0.07
		c0,0.03-0.01,0.05-0.01,0.08c-0.09-0.01-0.18-0.03-0.27-0.04c-1.58-0.68-3.15-1.37-4.73-2.04c-0.24-0.1-0.5-0.16-0.75-0.23
		c-0.03,0.08-0.07,0.16-0.1,0.24c0.6,0.4,1.21,0.81,1.82,1.21c0.62,0.41,1.26,0.8,1.88,1.2c0.1,0.06,0.2,0.12,0.29,0.19l-0.04,0.07
		c-0.11-0.05-0.22-0.11-0.34-0.16c-0.78-0.33-1.57-0.66-2.35-0.99l-0.06,0.15c1.26,0.65,2.52,1.3,3.78,1.94
		c-0.03,0.08-0.07,0.15-0.1,0.23c-1.65-0.68-3.3-1.37-4.95-2.05c-0.01,0.11-0.03,0.22-0.04,0.32c2.92,1.35,5.83,2.71,8.72,4.05
		c-0.77-0.16-1.59-0.33-2.41-0.51c-0.23,0.34-0.13,0.52,0.3,0.59c0.14,0.02,0.26,0.14,0.39,0.22c3.02,0.56,6.03,1.23,9.07,1.65
		c3.97,0.54,7.97,0.53,11.95,0.15c6.3-0.6,12.36-2.2,18.17-4.82c8.09-3.64,15.26-8.75,21.84-14.81c1.33-1.22,2.61-2.51,3.91-3.77
		c0.13-0.13,0.22-0.31,0.33-0.47c-0.17,0.07-0.36,0.1-0.51,0.21c-0.74,0.52-1.46,1.06-2.2,1.58c-0.54,0.38-1.1,0.72-1.64,1.09
		c0.01,0.02,0.02,0.05,0.02,0.07c0,0.01-0.02,0.03-0.03,0.04c-0.59,0.42-1.18,0.84-1.76,1.26c-0.04-0.03-0.09-0.06-0.13-0.09
		c0.08-0.16,0.12-0.35,0.24-0.46c0.42-0.38,0.86-0.73,1.29-1.09l0,0c0.04-0.03,0.09-0.07,0.13-0.1c1.72-1.35,3.44-2.7,5.15-4.06
		c0.93-0.74,1.85-1.51,2.77-2.27c-0.17,0.06-0.35,0.09-0.5,0.19c-0.48,0.32-0.95,0.66-1.43,1c-0.04-0.06-0.08-0.12-0.12-0.18
		l2.61-2.19c0.72-0.72,1.45-1.43,2.16-2.17c0.69-0.72,1.35-1.47,2.07-2.25c-0.12-0.12-0.26-0.26-0.42-0.42
		c0.08-0.16,0.21-0.43,0.33-0.69c-0.04-0.05-0.09-0.1-0.13-0.15c-0.22,0.11-0.46,0.19-0.65,0.34c-1.2,0.91-2.38,1.83-3.57,2.74
		c-0.14,0.11-0.28,0.2-0.43,0.3c-1.72,1.14-3.43,2.3-5.16,3.41c-1.07,0.68-2.18,1.29-3.28,1.92c-0.17,0.1-0.38,0.14-0.57,0.21
		c0.08-0.18,0.2-0.26,0.32-0.36c3.43-2.62,6.87-5.23,10.3-7.86c0.48-0.37,0.89-0.83,1.33-1.25c-0.26,0.17-0.54,0.31-0.79,0.5
		c-0.62,0.49-1.23,1-1.84,1.5c-0.15,0.12-0.33,0.21-0.54,0.23c1.19-1.03,2.39-2.05,3.57-3.09c0.13-0.11,0.19-0.31,0.28-0.46
		c-0.29,0.16-0.58,0.32-0.87,0.49c-0.02-0.03-0.04-0.06-0.06-0.09c0.42-0.37,0.83-0.74,1.25-1.12c1.14-1.22,2.28-2.44,3.42-3.67
		c-0.04-0.04-0.08-0.09-0.12-0.13c-0.13,0.03-0.26,0.06-0.46,0.11c0.54-0.66,1.03-1.27,1.53-1.87c-0.05-0.04-0.09-0.09-0.14-0.13
		c-0.71,0.67-1.42,1.34-2.13,2.01l-0.14,0.36l-0.19-0.18c0.08-0.09,0.17-0.18,0.25-0.27c0.05-0.13,0.11-0.26,0.16-0.4l-0.55,0.23
		l-0.01-0.01l-0.7,0.6c-0.02,0-0.05,0-0.07,0l-0.02-0.02c-0.04,0.01-0.08,0.02-0.12,0.03c-0.04,0.03-0.07,0.05,0.01-0.01
		c-0.1,0.04-0.06,0.02-0.01,0.01l0.12-0.21l0.03-0.03c0.04-0.18,0.07-0.36,0.11-0.53c0.04-0.14,0.38-0.28,0-0.41
		c-0.21,0.13-0.42,0.26-0.63,0.4c-0.01-0.03-0.03-0.05-0.04-0.08c0.36-0.44,0.72-0.87,1.09-1.31c-0.04-0.04-0.07-0.08-0.11-0.12
		c-0.47,0.4-0.95,0.79-1.42,1.19c-0.08,0.01-0.17,0.02-0.25,0.04c-0.01-0.02-0.01-0.04-0.02-0.06c0.06-0.03,0.12-0.06,0.18-0.09
		c0.46-0.52,0.92-1.04,1.38-1.55c-0.04-0.03-0.07-0.07-0.11-0.1c-0.06,0.05-0.13,0.09-0.18,0.14c-4.19,4.23-8.83,7.84-13.8,11
		c-0.19,0.12-0.4,0.21-0.61,0.27c-0.39,0.11,3.53-2.79-1.17,0.3"/>
	<path class="st1" d="M34.8,33.86"/>
	<path class="st1" d="M54.02,32.85"/>
	<polygon class="st1" points="97.64,13.14 97.62,13.18 97.66,13.19 	"/>
	<path class="st2" d="M62.3,69.56"/>
	<path class="st2" d="M61.31,68.79c-0.1,0.18-0.19,0.36-0.34,0.64"/>
	<path class="st2" d="M16.59,53.27c2.14,1.25,1.27,0.81,3.46,1.95c2.19,1.14,4.47,2.08,6.71,3.11c0,0.02,0,0.05,0,0.07
		c-1.07-0.26-2.13-0.52-3.2-0.78c-0.01,0.03-0.02,0.06-0.03,0.09c0.57,0.31,1.14,0.62,1.86,1.02c-0.35,0.07-0.52,0.1-0.85,0.16
		c0.38,0.08,0.61,0.11,0.83,0.17c1.4,0.39,2.8,0.76,4.19,1.2c0.33,0.11,0.6,0.45,0.89,0.68c-0.05,0.1-0.09,0.2-0.14,0.3
		c-2.24-0.57-4.49-1.14-6.73-1.7c-0.01,0.02-0.01,0.05-0.02,0.07c1.85,0.85,3.69,1.69,5.54,2.54c-0.02,0.06-0.03,0.12-0.05,0.18
		C27.99,62.1,26.9,62,25.9,61.62c-1.88-0.71-3.7-1.58-5.55-2.39c-0.03,0.03-0.05,0.06-0.08,0.09c1.91,1.02,3.82,2.04,5.73,3.05
		l-0.44-0.02l-0.04,0.21c0.83,0.23,1.66,0.47,2.5,0.69c0.22,0.06,0.58,0,0.65,0.13c0.29,0.5,0.71,0.34,1.1,0.36
		c0.9,0.05,1.65,0.36,2.07,1.26c-0.6-0.03-1.18-0.07-1.76-0.1c-0.01,0.07-0.02,0.13-0.02,0.2c0.3,0.15,0.6,0.3,0.9,0.45
		c-1.99-0.25-3.74-1.18-5.63-2.04c0.2,0.3,0.28,0.56,0.45,0.64c1.14,0.55,2.27,1.14,3.46,1.56c1.42,0.5,2.91,0.83,4.35,1.27
		c0.22,0.07,0.38,0.33,0.56,0.51c-0.21,0.15-0.32,0.18-0.43,0.16c-2.06-0.38-4.19-0.57-6.17-1.22c-2.39-0.78-4.66-1.95-6.99-2.96
		c-0.24-0.1-0.48-0.2-0.72-0.3c3.29,1.81,6.56,3.68,10.19,4.69C30,67.94,29.97,68,29.95,68.06c-0.86-0.18-1.72-0.35-2.59-0.53
		c0.01,0.01,0.02,0.01,0.03,0.02c0.37,0.08,0.71,0.2,1.02,0.36c1.63,0.35,3.26,0.69,4.89,1.07c0.42,0.1,0.8,0.36,1.19,0.55
		c-1.5,0.44-2.9,0.25-4.3-0.13c2.98,1.1,6.06,1.64,9.19,2.04c3.12,0.4,6.21,0.09,9.46,0.05c-1,0.33-1.86,0.61-2.72,0.89
		c0.02,0.07,0.04,0.13,0.06,0.2c2.26-0.44,4.06-0.9,5.19-1.2c14.7-3.96,22.27-10.71,23.18-11.58c0.86-0.82,1.88-1.84,1.88-1.84
		c1.05-1.04,1.87-1.92,2.22-2.25c1.91-1.8,3.63-3.76,5.19-5.88c0.02-0.18,0.05-0.36,0.09-0.53c-0.31,0.34-0.62,0.69-0.94,1.03
		c-0.68,0.73-1.36,1.45-2.03,2.17c-0.04,0.04-0.08,0.07-0.12,0.11c-0.04,0.03-0.07,0.06-0.11,0.09c0.02-0.04,0.04-0.09,0.07-0.13
		c0.03-0.05,0.07-0.09,0.1-0.14c0.62-0.74,1.25-1.48,1.87-2.23c0.47-0.56,0.93-1.13,1.4-1.69c0.09-0.24,0.21-0.48,0.33-0.7
		c-0.03,0.01-0.07,0.02-0.1,0.03c-0.04,0.03-0.09,0.06-0.13,0.09c0.02-0.06,0.04-0.11,0.05-0.17c0.11-0.16,0.21-0.33,0.34-0.47
		c3.95-4.39,7.49-9.13,10.76-14.1c0.17-0.25,0.35-0.45-0.11-0.58c0.3-0.4,0.59-0.77,0.91-1.18c-0.01-0.03-0.03-0.07-0.04-0.1
		c-0.07,0.03-0.11,0.05-0.12,0.06c0-0.18-1.85,0.93-1.82,0.78c-0.1-0.37,1.65-2.06,1.63-2.44c-0.66,0.75-1.34,1.49-2.21,2.04
		c-0.67,0.42-1.16,1.13-1.74,1.7c-0.03,0.03-0.07,0.06-0.1,0.1c-0.15,0.14-0.3,0.27-0.44,0.41l0-0.02l-0.12,0.13l0.01-0.01
		c-0.04,0.04-0.08,0.08-0.11,0.13c-0.38,0.37-0.75,0.73-1.13,1.1c-0.12,0.11-0.24,0.23-0.36,0.34c-0.03-0.03-0.06-0.06-0.09-0.09
		c0.12-0.12,0.24-0.23,0.36-0.35c0.52-0.61,1.04-1.23,1.56-1.84c1.48-1.64,2.96-3.29,4.44-4.93c0.01-0.09,0.04-0.18,0.05-0.28
		l-0.71,0.19l-0.07-0.16c0.28-0.31,0.55-0.62,0.83-0.94c-0.03-0.04-0.06-0.09-0.09-0.13c-0.42,0.24-0.85,0.49-1.27,0.73l-0.08-0.17
		l1.01-0.94c-0.03-0.04-0.06-0.08-0.09-0.12c-0.86,0.59-1.71,1.19-2.64,1.82c0.22-0.35,0.39-0.62,0.56-0.89
		c-0.02-0.02-0.04-0.04-0.06-0.07c-0.31,0.21-0.61,0.41-0.92,0.62c-0.01-0.02-0.02-0.05-0.04-0.07c0.21-0.28,0.43-0.56,0.64-0.84
		l-0.13-0.16c-0.98,0.75-1.95,1.5-2.93,2.25c-0.11,0.16-0.19,0.34-0.33,0.47c-1.3,1.26-2.58,2.55-3.91,3.77
		c-6.58,6.05-13.75,11.17-21.84,14.81c-5.81,2.62-11.87,4.22-18.17,4.82c-3.99,0.38-7.99,0.39-11.95-0.15
		c-3.04-0.41-6.05-1.09-9.07-1.65c-1.14-0.31-2.28-0.61-3.43-0.92c-0.1,0.03-0.2,0.1-0.28,0.08c-0.96-0.31-1.92-0.63-2.88-0.94
		c-0.14-0.05-0.29-0.08-0.44-0.12c-0.01,0.03-0.02,0.07-0.03,0.1c1.26,0.76,2.52,1.52,3.78,2.28c-1.1-0.39-2.18-0.81-3.24-1.32
		c-0.58-0.27-1.12-0.64-1.66-0.98c-0.04,0.05-0.08,0.09-0.13,0.14c0.09,0.09,0.18,0.17,0.27,0.26c0.05,0.01,0.11,0.02,0.16,0.03
		c-0.05,0.03-0.1,0.06-0.15,0.09l-0.02,0.02c1.24,0.71,2.48,1.42,3.59,2.06c-0.36,0.31,2.32,0.71-1.21,1.04
		c0.11,0.12,1.83,0.59,1.88,0.65c0.74,0.9-2.54-0.41,1.12,1.31c0.73,0.34,1.61,0.58,2.42,0.9c-0.02,0.07-0.05,0.14-0.07,0.21
		c-0.45-0.14-0.89-0.29-1.34-0.43c-0.14-0.05-0.39-0.16-0.42-0.11c-0.28,0.42-0.56,0.1-0.78-0.02"/>
	<path class="st2" d="M94.97,28.5c0.03,0.03,0.06,0.06,0.09,0.09c0.05-0.07,0.11-0.14,0.16-0.2c-0.02-0.02-0.05-0.04-0.07-0.06
		C95.1,28.38,95.03,28.44,94.97,28.5z"/>
	<path class="st2" d="M31.11,65.69c0.04,0.01,0.07,0.02,0.1,0.03c0.01,0,0.03-0.02,0.04-0.02c-0.02-0.02-0.05-0.04-0.07-0.04
		C31.15,65.65,31.13,65.68,31.11,65.69z"/>
	<path class="st3" d="M80.91,52.44c0.62-0.74,1.25-1.48,1.87-2.23c0.07,0.04,0.15,0.08,0.22,0.12c-0.68,0.72-1.36,1.45-2.03,2.17
		C80.95,52.49,80.93,52.46,80.91,52.44z"/>
	<path class="st4" d="M91.17,34.22c-0.38,0.37-0.75,0.73-1.13,1.1c-0.03-0.03-0.06-0.06-0.09-0.1c0.52-0.61,1.04-1.23,1.56-1.84
		c-0.04,0.2-0.08,0.41-0.11,0.61c0,0,0-0.02,0-0.02c-0.04,0.04-0.08,0.09-0.12,0.13c0,0,0.01-0.01,0.01-0.01
		c-0.05,0.01-0.11,0.02-0.16,0.03C91.14,34.15,91.16,34.18,91.17,34.22z"/>
	<path class="st5" d="M98.08,12.45c0.04-0.18,0.07-0.36,0.11-0.53"/>
	<path class="st6" d="M93.34,25.49c0.12-0.12,0.23-0.24,0.35-0.36C93.57,25.25,93.46,25.37,93.34,25.49z"/>
	<path class="st6" d="M96.21,18.08c0.15-0.08,0.31-0.16,0.46-0.25C96.51,17.92,96.36,18,96.21,18.08z"/>
	<path class="st7" d="M19.93,59.08c-0.09-0.01-0.17-0.03-0.26-0.04c0.01-0.03,0.02-0.06,0.02-0.08c0.09,0.03,0.17,0.07,0.26,0.1
		C19.96,59.06,19.93,59.08,19.93,59.08z"/>
	<path class="st6" d="M17.99,34.69c-0.05-0.01-0.11-0.02-0.16-0.03c0.01-0.02,0.01-0.04,0.02-0.06c0.05,0.02,0.1,0.05,0.15,0.07
		C18,34.68,17.99,34.69,17.99,34.69z"/>
	<path class="st4" d="M91.94,33.48c-0.03,0.03-0.07,0.06-0.1,0.1C91.87,33.54,91.9,33.51,91.94,33.48z"/>
	<path class="st7" d="M19.96,59.06c0.04,0.02,0.07,0.05,0.11,0.07c-0.01,0.01-0.03,0.04-0.04,0.03c-0.03-0.03-0.06-0.06-0.1-0.08
		C19.93,59.08,19.96,59.06,19.96,59.06z"/>
	<path class="st7" d="M20.27,59.33c-0.03-0.03-0.07-0.07-0.1-0.1c0.06,0,0.12,0,0.18,0.01C20.32,59.26,20.3,59.29,20.27,59.33z"/>
	<path class="st8" d="M85.3,31.92c0.04-0.03,0.09-0.07,0.13-0.1C85.38,31.85,85.34,31.88,85.3,31.92z"/>
	<path class="st0" d="M99.32,12.35c-0.05,0.12-0.1,0.24-0.14,0.36c-0.06-0.06-0.12-0.12-0.19-0.18c0.08-0.09,0.17-0.18,0.25-0.27
		C99.26,12.29,99.29,12.32,99.32,12.35z"/>
	<path class="st0" d="M21.58,47.33c0.1,0.06,0.2,0.12,0.29,0.19c-0.01,0.02-0.02,0.05-0.04,0.07c-0.11-0.05-0.22-0.11-0.34-0.16
		C21.52,47.39,21.55,47.36,21.58,47.33z"/>
	<path class="st0" d="M20.24,43.69c0.08,0.04,0.16,0.08,0.24,0.12c-0.01,0.03-0.02,0.05-0.03,0.08c-0.1-0.03-0.2-0.06-0.3-0.1
		C20.18,43.76,20.21,43.73,20.24,43.69z"/>
	<polygon class="st5" points="97.64,13.14 97.66,13.19 97.62,13.18 	"/>
	<path class="st0" d="M97.06,11.58c-0.08,0.01-0.17,0.02-0.25,0.04c-0.01-0.02-0.01-0.04-0.02-0.07c0.06-0.03,0.12-0.06,0.18-0.09
		C97,11.5,97.03,11.54,97.06,11.58z"/>
	<path class="st5" d="M97.93,12.7c-0.04,0.03-0.07,0.05,0.01-0.01C97.84,12.73,97.88,12.71,97.93,12.7
		C97.93,12.69,97.93,12.7,97.93,12.7z"/>
	<path class="st0" d="M17.83,39.99c0.05,0.04,0.1,0.08,0.15,0.12c-0.01,0.02-0.02,0.04-0.03,0.07c-0.07-0.03-0.15-0.05-0.22-0.08
		C17.76,40.07,17.8,40.03,17.83,39.99z"/>
	<path class="st5" d="M98.05,12.49c0,0.06,0,0.12,0,0.18c-0.04,0.01-0.08,0.02-0.12,0.03c0,0,0,0,0,0
		C97.97,12.62,98.01,12.56,98.05,12.49z"/>
	<path class="st0" d="M23.53,46.84c0.07,0.02,0.13,0.05,0.2,0.07c0,0.03-0.01,0.05-0.01,0.08c-0.09-0.01-0.18-0.03-0.27-0.04
		C23.48,46.92,23.5,46.88,23.53,46.84z"/>
	<path class="st5" d="M98.07,12.69c0.02,0,0.05,0,0.07,0C98.11,12.69,98.09,12.69,98.07,12.69z"/>
	<path class="st0" d="M85.66,32.3c0-0.04,0.01-0.08,0.01-0.12c0.01,0.03,0.02,0.05,0.02,0.08C85.69,32.27,85.67,32.28,85.66,32.3z"
		/>
	<path class="st4" d="M90.04,35.31c-0.12,0.11-0.24,0.23-0.36,0.34c-0.03-0.03-0.06-0.06-0.09-0.09c0.12-0.12,0.24-0.23,0.36-0.35
		C89.98,35.25,90.01,35.28,90.04,35.31z"/>
	<path class="st0" d="M94.97,28.5c0.06-0.06,0.12-0.12,0.18-0.18c0.02,0.02,0.05,0.04,0.07,0.06c-0.05,0.07-0.11,0.14-0.16,0.2
		C95.03,28.56,95,28.53,94.97,28.5z"/>
	<path class="st0" d="M31.11,65.69c0.03-0.02,0.05-0.04,0.07-0.04c0.03,0,0.05,0.03,0.07,0.04c-0.01,0.01-0.03,0.03-0.04,0.02
		C31.17,65.72,31.14,65.71,31.11,65.69z"/>
	<path class="st0" d="M91.17,34.22c-0.02-0.03-0.03-0.06-0.05-0.09c0.05-0.01,0.11-0.02,0.16-0.03
		C91.25,34.13,91.21,34.17,91.17,34.22z"/>
	<path class="st0" d="M91.28,34.1c0.04-0.04,0.08-0.09,0.12-0.13C91.36,34.01,91.32,34.05,91.28,34.1z"/>
	<path class="st3" d="M80.81,52.58c0.03-0.05,0.07-0.09,0.1-0.14c0.02,0.02,0.04,0.05,0.06,0.07c-0.04,0.04-0.08,0.07-0.12,0.11
		C80.84,52.61,80.82,52.59,80.81,52.58z"/>
	<path class="st3" d="M80.73,52.73c0.03-0.05,0.05-0.1,0.08-0.16c0.01,0.01,0.03,0.03,0.04,0.05
		C80.81,52.66,80.77,52.69,80.73,52.73C80.72,52.72,80.73,52.73,80.73,52.73z"/>
	<path class="st3" d="M80.62,52.85c0.04-0.04,0.08-0.08,0.11-0.12c0,0-0.01-0.01-0.01-0.01C80.69,52.76,80.65,52.8,80.62,52.85
		C80.61,52.84,80.62,52.85,80.62,52.85z"/>
	<path class="st3" d="M80.61,52.84c-0.01,0.01-0.02,0.02-0.02,0.04C80.6,52.87,80.61,52.86,80.61,52.84
		C80.62,52.85,80.61,52.84,80.61,52.84z"/>
	<path class="st6" d="M98.84,12.09c0.02-0.02,0.04-0.03,0.06-0.05C98.88,12.06,98.87,12.08,98.84,12.09
		C98.85,12.1,98.84,12.09,98.84,12.09z"/>
</g>
<path class="st2" d="M85,68.04"/>
</svg>
