<?xml version="1.0" encoding="utf-8"?>
<!-- Generator: Adobe Illustrator 26.5.0, SVG Export Plug-In . SVG Version: 6.00 Build 0)  -->
<svg version="1.1" id="Layer_1" xmlns="http://www.w3.org/2000/svg" xmlns:xlink="http://www.w3.org/1999/xlink" x="0px" y="0px"
	 viewBox="0 0 1681.95 1268.16" style="enable-background:new 0 0 1681.95 1268.16;" xml:space="preserve">
<style type="text/css">
	.st0{display:none;fill-rule:evenodd;clip-rule:evenodd;fill:#FEFEFE;}
	.st1{fill:#FFD500;}
	.st2{fill-rule:evenodd;clip-rule:evenodd;fill:#3399CC;}
</style>
<g>
	<polygon class="st0" points="-158.98,-365.88 1840.94,-365.88 1840.94,1634.04 -158.98,1634.04 -158.98,-365.88 	"/>
	<path class="st0" d="M1766.95,1488.61c32.73-0.53,59.69,25.57,60.22,58.29c0.53,32.73-25.57,59.69-58.3,60.22
		c-32.73,0.53-59.69-25.57-60.22-58.3C1708.12,1516.11,1734.22,1489.15,1766.95,1488.61L1766.95,1488.61z"/>
	<path class="st0" d="M1741.75,1578.09l11.24-12.07c-3.12-3.3-7.54-4.96-12.05-4.56l0.65,16.47c-8.27-7.38-13.48-18.11-13.48-30.06
		c0-19.73,14.19-36.15,32.91-39.61l-19.96,52.81c0.46-0.04,0.92-0.07,1.39-0.07c4.24,0,8.05,1.79,10.75,4.64l15.17-40.14
		l15.23,40.16c2.69-2.87,6.51-4.66,10.76-4.66c0.45,0,0.89,0.02,1.32,0.06l-19.96-52.81c16.12,2.97,28.89,15.53,32.14,31.56
		l12.45-2.48c-4.88-24.21-26.28-42.44-51.93-42.44c-29.26,0-52.98,23.72-52.98,52.98c0,29.26,23.72,52.98,52.98,52.98
		c25.8,0,47.29-18.45,52.01-42.87l-12.45-2.48c-1.37,7.15-4.63,13.62-9.24,18.88c0.47-1.04,0.37-2.22-0.58-3.26
		c0.58,3.27-3.58,2.51-1.13-0.37c1.57-1.95,1.45-4.06,0.04-6.17c0.82,0.54,1.02,1.09,1.44,2.65c0.54-2.58-0.99-5.05-2.72-5.82
		c-4.86-0.23-8.77,1.31-11.91,4.58c-0.74,3.57,0.91,6.89,3.2,8.61c-0.64-1.13-0.87-1.78-0.77-2.88c3.24,5.86,7.99,6.15,10.67,4.53
		c-7.29,7.34-17.4,11.89-28.57,11.89C1758.18,1588.16,1748.85,1584.35,1741.75,1578.09L1741.75,1578.09z M1767.8,1551.63h10.01
		l3.91,10.35h-13.92v-0.69h-12.45l3.35-8.87h9.09V1551.63L1767.8,1551.63z"/>
	<path class="st0" d="M941.34,1598.54c2.09-0.03,3.82,1.64,3.85,3.73c0.03,2.09-1.64,3.82-3.73,3.85c-2.09,0.03-3.82-1.64-3.85-3.73
		C937.58,1600.3,939.25,1598.57,941.34,1598.54L941.34,1598.54z"/>
	<polygon class="st0" points="1831.42,1619.91 775.92,1619.91 773.95,1624.85 1831.42,1624.85 1831.42,1619.91 	"/>
	<path class="st0" d="M1010.28,1594c3.63-0.06,6.61,2.83,6.67,6.46c0.06,3.63-2.83,6.61-6.46,6.67c-3.63,0.06-6.61-2.83-6.67-6.46
		C1003.76,1597.05,1006.65,1594.06,1010.28,1594L1010.28,1594z"/>
	<path class="st0" d="M1091.94,1590.1c4.71-0.08,8.6,3.68,8.67,8.4c0.08,4.71-3.68,8.6-8.4,8.68c-4.71,0.08-8.6-3.68-8.68-8.4
		C1083.47,1594.06,1087.23,1590.18,1091.94,1590.1L1091.94,1590.1z"/>
	<path class="st0" d="M1177.65,1585.98c5.86-0.1,10.69,4.58,10.79,10.44c0.1,5.86-4.58,10.69-10.44,10.79
		c-5.86,0.1-10.69-4.58-10.79-10.44C1167.11,1590.9,1171.78,1586.07,1177.65,1585.98L1177.65,1585.98z"/>
	<path class="st0" d="M1269.41,1577.91c8.1-0.13,14.77,6.33,14.9,14.43c0.13,8.1-6.33,14.77-14.43,14.9
		c-8.1,0.13-14.77-6.33-14.9-14.43C1254.85,1584.72,1261.31,1578.05,1269.41,1577.91L1269.41,1577.91z"/>
	<path class="st0" d="M1367.9,1572.7c9.55-0.16,17.42,7.46,17.57,17.01c0.16,9.55-7.46,17.42-17.01,17.57
		c-9.55,0.16-17.42-7.46-17.57-17.01C1350.74,1580.72,1358.35,1572.85,1367.9,1572.7L1367.9,1572.7z"/>
	<path class="st0" d="M1477.04,1556.27c14.09-0.23,25.71,11.01,25.93,25.11c0.23,14.1-11.01,25.71-25.11,25.94
		c-14.09,0.23-25.71-11.01-25.94-25.11C1451.7,1568.12,1462.94,1556.5,1477.04,1556.27L1477.04,1556.27z"/>
	<path class="st0" d="M1605.35,1534.08c20.2-0.33,36.84,15.78,37.17,35.98c0.33,20.2-15.78,36.84-35.98,37.17
		c-20.2,0.33-36.84-15.78-37.17-35.98C1569.04,1551.05,1585.15,1534.41,1605.35,1534.08L1605.35,1534.08z"/>
	<path class="st1" d="M0,1268.16C0,882.25,0,496.33,0,110.42C560.65-220.84,1121.3,331.26,1681.95,0c0,385.91,0,771.83,0,1157.74
		C1121.3,1489.01,560.65,936.9,0,1268.16L0,1268.16z"/>
	<path class="st2" d="M0,689.29V110.42C560.65-220.84,1121.3,331.26,1681.95,0v578.87C1121.3,910.13,560.65,358.03,0,689.29
		L0,689.29z"/>
</g>
</svg>
